# xmcd
#
# Track frame offsets:
#	151
#	17894
#	43888
#	57233
#	67967
#	100911
#	109178
#	114390
#	140613
#	169334
#	192239
#	204187
#	220209
#	234719
#	254771
#	296338
#	315249
#
# Disc length: 4394 seconds
#
# Revision: 0
# Processed by: cddbd v1.5.2PL0 Copyright (c) Steve Scherf et al.
# Submitted via: EZCDAudioConverter 1.3.4.1
#
DISCID=fd112811
DTITLE=Various, Oregan Historical Society - Historic Organs of Portland 2-4
DYEAR=2001
DGENRE=organ
TTITLE0=Henry Thomas Smart - Postlude in C
TTITLE1=Saint-Saens - Prelude and Fugue in G Op.109 #2
TTITLE2=J S Bach - Herzlich Lieb hab'ich dich, O Herr
TTITLE3=Johann Pachelbel - Toccata in C
TTITLE4=Flor Peeters - Awake, My Heart, with Gladness
TTITLE5=Hermann Schroeder - Little Prelude #6 in C
TTITLE6=Couperin - Recit de Cornet (Sanctus), Parishes Mass
TTITLE7=Guy Bovet - Toccata Planyavska
TTITLE8=Alexander Guilmant - Offertory O Filii Op.49-2
TTITLE9=Amy M C Beach - Prelude on an Old Folk Tune
TTITLE10=Scheidermann - O Gott wir danken deiner Gut
TTITLE11=Tim Drewes - Babson Rag
TTITLE12=George Shearing - Amazing Grace
TTITLE13=Hymn - Love Divine, All Loves Exccelling
TTITLE14=Felix Mendelssohn - Sonata Op.65 #6
TTITLE15=Hymn - Jesus, Priceless Treasure
TTITLE16=Jacques Lemmens - Fanfare for Concert Use
EXTD=
EXTT0=
EXTT1=
EXTT2=
EXTT3=
EXTT4=
EXTT5=
EXTT6=
EXTT7=
EXTT8=
EXTT9=
EXTT10=
EXTT11=
EXTT12=
EXTT13=
EXTT14=
EXTT15=
EXTT16=
PLAYORDER=
